<svg xmlns="http://www.w3.org/2000/svg" xmlns:xlink="http://www.w3.org/1999/xlink" width="500" zoomAndPan="magnify" viewBox="0 0 375 374.999991" height="500" preserveAspectRatio="xMidYMid meet" version="1.0"><defs><clipPath id="6b040d71fc"><path d="M 30.183594 30.457031 L 310 30.457031 L 310 310 L 30.183594 310 Z M 30.183594 30.457031 " clip-rule="nonzero"/></clipPath></defs><g clip-path="url(#6b040d71fc)"><path fill="#ff914d" d="M 169.953125 309.996094 C 247.148438 309.996094 309.726562 247.417969 309.726562 170.226562 C 309.726562 93.035156 247.148438 30.457031 169.953125 30.457031 C 92.761719 30.457031 30.183594 93.035156 30.183594 170.226562 C 30.183594 247.417969 92.761719 309.996094 169.953125 309.996094 Z M 117.773438 118.046875 C 105.421875 118.046875 95.410156 128.058594 95.410156 140.410156 L 95.410156 200.042969 C 95.410156 212.394531 105.421875 222.40625 117.773438 222.40625 L 188.589844 222.40625 C 200.941406 222.40625 210.953125 212.394531 210.953125 200.042969 L 210.953125 196.605469 L 234.015625 206.855469 C 236.324219 207.878906 238.992188 207.671875 241.105469 206.292969 C 243.222656 204.917969 244.5 202.566406 244.5 200.042969 L 244.5 140.410156 C 244.5 137.886719 243.222656 135.535156 241.105469 134.160156 C 238.992188 132.78125 236.324219 132.574219 234.015625 133.597656 L 210.953125 143.847656 L 210.953125 140.410156 C 210.953125 128.058594 200.941406 118.046875 188.589844 118.046875 Z M 125.226562 140.410156 L 155.046875 140.410156 L 155.046875 155.316406 L 125.226562 155.316406 Z M 125.226562 140.410156 " fill-opacity="1" fill-rule="evenodd"/></g><path stroke-linecap="butt" transform="matrix(2.070379, -0.182071, 0.182071, 2.070379, 0.00108717, 193.513698)" fill="none" stroke-linejoin="miter" d="M 0.98397 1.742126 C 59.863066 34.998365 118.740382 34.998906 177.619828 1.742207 " stroke="#38b6ff" stroke-width="4" stroke-opacity="1" stroke-miterlimit="4"/><path stroke-linecap="butt" transform="matrix(1.993525, -0.587771, 0.587771, 1.993525, 27.198504, 251.479906)" fill="none" stroke-linejoin="miter" d="M 0.98423 1.740479 C 71.554578 41.628732 123.964973 41.627073 158.215625 1.741444 " stroke="#38b6ff" stroke-width="4" stroke-opacity="1" stroke-miterlimit="4"/><path stroke-linecap="butt" transform="matrix(2.072075, -0.161625, 0.161625, 2.072075, 4.718842, 220.172563)" fill="none" stroke-linejoin="miter" d="M 0.758676 1.849774 C 58.90897 25.706861 117.05759 25.706767 175.20641 1.84964 " stroke="#38b6ff" stroke-width="4" stroke-opacity="1" stroke-miterlimit="4"/><path stroke-linecap="butt" transform="matrix(2.078077, -0.0348504, 0.0348504, 2.078077, 18.127069, 266.420726)" fill="none" stroke-linejoin="miter" d="M 0.458857 1.946263 C 50.437088 13.737686 100.413787 13.739335 150.392807 1.945636 " stroke="#38b6ff" stroke-width="4" stroke-opacity="1" stroke-miterlimit="4"/><path stroke-linecap="butt" transform="matrix(2.047489, 0.356941, -0.356941, 2.047489, 17.38729, 245.299553)" fill="none" stroke-linejoin="miter" d="M 1.146045 1.639951 C 43.592892 31.28437 86.03986 31.283078 128.487595 1.639779 " stroke="#38b6ff" stroke-width="4" stroke-opacity="1" stroke-miterlimit="4"/><path stroke-linecap="butt" transform="matrix(2.029284, -0.449026, 0.449026, 2.029284, 42.108381, 291.305782)" fill="none" stroke-linejoin="miter" d="M 0.905083 1.783957 C 47.880908 25.63955 94.855334 25.639049 141.830196 1.782861 " stroke="#38b6ff" stroke-width="4" stroke-opacity="1" stroke-miterlimit="4"/></svg>